<svg width="84" height="76" viewBox="0 0 84 76" fill="none" xmlns="http://www.w3.org/2000/svg">
<path d="M79.745 45.7696H71.3767V41.2417C71.3761 40.6847 71.2367 40.1365 70.9711 39.6468C70.7055 39.1571 70.3221 38.7413 69.8555 38.4369L72.0281 20.6103C72.1662 19.481 71.8509 18.343 71.1512 17.4459C70.4516 16.5488 69.4247 15.9657 68.2959 15.8245L41.2252 12.5098C40.096 12.3729 38.9587 12.6887 38.0617 13.3881C37.1648 14.0875 36.5813 15.1136 36.4389 16.2421L35.6199 22.8857H30.8275C29.6873 22.8855 28.5936 23.3376 27.7864 24.1428C26.9791 24.948 26.5242 26.0405 26.5215 27.1807V70.8513C26.5242 71.9914 26.9791 73.0839 27.7864 73.8891C28.5936 74.6943 29.6873 75.1464 30.8275 75.1463C30.8395 75.1485 79.745 75.143 79.745 75.143C80.6351 75.142 81.4885 74.788 82.1179 74.1586C82.7473 73.5292 83.1013 72.6758 83.1023 71.7857V49.1269C83.1013 48.2368 82.7473 47.3834 82.1179 46.754C81.4885 46.1246 80.6351 45.7705 79.745 45.7696ZM80.8641 49.1269V54.5457L65.8948 60.8644C64.903 61.2799 63.8385 61.4939 62.7631 61.4939C61.6878 61.4939 60.6233 61.2799 59.6315 60.8644L44.6612 54.5454V49.1269C44.6615 48.8302 44.7795 48.5457 44.9893 48.3359C45.1991 48.1261 45.4836 48.0081 45.7803 48.0078C51.4279 48.0077 79.745 48.0078 79.745 48.0078C80.0417 48.008 80.3262 48.126 80.5361 48.3358C80.7459 48.5456 80.8639 48.8302 80.8641 49.1269ZM56.3867 45.7696V41.2417C56.3869 40.945 56.5049 40.6605 56.7147 40.4506C56.9246 40.2408 57.2091 40.1228 57.5059 40.1226H68.0194C68.3162 40.1228 68.6007 40.2408 68.8105 40.4506C69.0203 40.6605 69.1383 40.945 69.1385 41.2417V45.7696H56.3867ZM38.6607 16.512C38.7294 15.9729 39.0087 15.483 39.4375 15.1492C39.8663 14.8154 40.4098 14.6649 40.9492 14.7306L68.0183 18.0453C68.5589 18.1123 69.0509 18.3909 69.3863 18.8202C69.7216 19.2494 69.8731 19.7941 69.8074 20.3349L67.6691 37.8844H62.3932V27.1687C62.3904 26.0317 61.9368 24.9423 61.1318 24.1394C60.3268 23.3364 59.2362 22.8856 58.0993 22.8857H37.8753L38.6607 16.512ZM28.7597 70.8513V27.1807C28.7617 26.6339 28.9805 26.1102 29.3682 25.7246C29.7558 25.339 30.2807 25.123 30.8275 25.1239H58.0993C58.6429 25.123 59.1646 25.3378 59.55 25.7212C59.9354 26.1045 60.153 26.6251 60.155 27.1687V37.8844H57.5059C56.6157 37.8854 55.7623 38.2394 55.1329 38.8688C54.5035 39.4982 54.1495 40.3516 54.1485 41.2417V45.7696H45.7803C44.8902 45.7705 44.0368 46.1246 43.4074 46.754C42.778 47.3834 42.4239 48.2368 42.423 49.1269V71.7857C42.4267 72.169 42.4968 72.5487 42.6302 72.9081H30.8275C30.2807 72.909 29.7558 72.6929 29.3682 72.3073C28.9805 71.9217 28.7617 71.398 28.7597 70.8513ZM79.745 72.9048H45.7803C45.4836 72.9045 45.1991 72.7865 44.9893 72.5767C44.7795 72.3669 44.6615 72.0824 44.6612 71.7857V56.9738L58.7616 62.9257C60.0287 63.4575 61.389 63.7314 62.7632 63.7314C64.1373 63.7314 65.4977 63.4575 66.7648 62.9257L80.8641 56.9741V71.7857C80.8639 72.0824 80.7459 72.367 80.5361 72.5768C80.3262 72.7866 80.0417 72.9046 79.745 72.9048Z" fill="black"/>
<circle cx="27.5" cy="27.5" r="27.5" fill="#E84B37" fill-opacity="0.1"/>
</svg>
