<svg width="82" height="76" viewBox="0 0 82 76" fill="none" xmlns="http://www.w3.org/2000/svg">
<path d="M72.0731 56.1219C76.3995 56.1219 79.9068 54.6188 79.9068 52.7646C79.9068 50.9104 76.3995 49.4072 72.0731 49.4072C67.7466 49.4072 64.2393 50.9104 64.2393 52.7646C64.2393 54.6188 67.7466 56.1219 72.0731 56.1219Z" stroke="black" stroke-width="2.23823" stroke-miterlimit="10" stroke-linecap="round" stroke-linejoin="round"/>
<path d="M72.0731 56.1219C76.3995 56.1219 79.9068 54.6188 79.9068 52.7646C79.9068 50.9104 76.3995 49.4072 72.0731 49.4072C67.7466 49.4072 64.2393 50.9104 64.2393 52.7646C64.2393 54.6188 67.7466 56.1219 72.0731 56.1219Z" stroke="black" stroke-width="2.23823" stroke-miterlimit="10" stroke-linecap="round" stroke-linejoin="round"/>
<path d="M72.0731 56.1219C76.3995 56.1219 79.9068 54.6188 79.9068 52.7646C79.9068 50.9104 76.3995 49.4072 72.0731 49.4072C67.7466 49.4072 64.2393 50.9104 64.2393 52.7646C64.2393 54.6188 67.7466 56.1219 72.0731 56.1219Z" stroke="black" stroke-width="2.23823" stroke-miterlimit="10" stroke-linecap="round" stroke-linejoin="round"/>
<path d="M64.2393 57.2412C64.2393 59.0956 67.7477 60.5986 72.0731 60.5986C76.4018 60.5986 79.9068 59.0956 79.9068 57.2412" stroke="black" stroke-width="2.23823" stroke-miterlimit="10" stroke-linecap="round" stroke-linejoin="round"/>
<path d="M64.2393 61.7175C64.2393 63.5719 67.7477 65.0749 72.0731 65.0749C76.4018 65.0749 79.9068 63.5719 79.9068 61.7175" stroke="black" stroke-width="2.23823" stroke-miterlimit="10" stroke-linecap="round" stroke-linejoin="round"/>
<path d="M64.2393 66.1941C64.2393 68.0485 67.7477 69.5514 72.0731 69.5514C76.4018 69.5514 79.9068 68.0485 79.9068 66.1941" stroke="black" stroke-width="2.23823" stroke-miterlimit="10" stroke-linecap="round" stroke-linejoin="round"/>
<path d="M79.9068 52.7646V57.2411V61.7176V66.194V70.6705C79.9068 72.5282 76.404 74.0278 72.0731 74.0278C67.7421 74.0278 64.2393 72.5282 64.2393 70.6705V66.194V61.7176V57.2411V52.7646" stroke="black" stroke-width="2.23823" stroke-miterlimit="10" stroke-linecap="round" stroke-linejoin="round"/>
<path d="M56.4061 65.075C60.7325 65.075 64.2399 63.5719 64.2399 61.7177C64.2399 59.8635 60.7325 58.3604 56.4061 58.3604C52.0796 58.3604 48.5723 59.8635 48.5723 61.7177C48.5723 63.5719 52.0796 65.075 56.4061 65.075Z" stroke="black" stroke-width="2.23823" stroke-miterlimit="10" stroke-linecap="round" stroke-linejoin="round"/>
<path d="M56.4061 65.075C60.7325 65.075 64.2399 63.5719 64.2399 61.7177C64.2399 59.8635 60.7325 58.3604 56.4061 58.3604C52.0796 58.3604 48.5723 59.8635 48.5723 61.7177C48.5723 63.5719 52.0796 65.075 56.4061 65.075Z" stroke="black" stroke-width="2.23823" stroke-miterlimit="10" stroke-linecap="round" stroke-linejoin="round"/>
<path d="M56.4061 65.075C60.7325 65.075 64.2399 63.5719 64.2399 61.7177C64.2399 59.8635 60.7325 58.3604 56.4061 58.3604C52.0796 58.3604 48.5723 59.8635 48.5723 61.7177C48.5723 63.5719 52.0796 65.075 56.4061 65.075Z" stroke="black" stroke-width="2.23823" stroke-miterlimit="10" stroke-linecap="round" stroke-linejoin="round"/>
<path d="M48.5723 66.1941C48.5723 68.0485 52.0807 69.5514 56.4061 69.5514C60.7348 69.5514 64.2399 68.0485 64.2399 66.1941" stroke="black" stroke-width="2.23823" stroke-miterlimit="10" stroke-linecap="round" stroke-linejoin="round"/>
<path d="M48.5723 61.7175V66.194V70.6704C48.5723 72.5282 52.0751 74.0278 56.4061 74.0278C60.737 74.0278 64.2399 72.5282 64.2399 70.6704" stroke="black" stroke-width="2.23823" stroke-miterlimit="10" stroke-linecap="round" stroke-linejoin="round"/>
<path d="M72.3066 46.0623C72.8863 43.9181 73.1941 41.6631 73.1941 39.3353C73.1941 25.1192 61.6706 13.5957 47.4545 13.5957C33.2384 13.5957 21.7148 25.1192 21.7148 39.3353C21.7148 52.8464 32.126 63.9267 45.3617 64.991" stroke="black" stroke-width="2.23823" stroke-miterlimit="10" stroke-linejoin="round"/>
<path d="M47.4531 25.9062V39.3356H56.406" stroke="black" stroke-width="2.23823" stroke-miterlimit="10" stroke-linecap="round" stroke-linejoin="round"/>
<path d="M47.4531 13.5957V19.1913" stroke="black" stroke-width="2.23823" stroke-miterlimit="10" stroke-linecap="round" stroke-linejoin="round"/>
<path d="M34.584 17.0449L36.2627 19.9524" stroke="black" stroke-width="2.23823" stroke-miterlimit="10" stroke-linecap="round" stroke-linejoin="round"/>
<path d="M25.1621 26.4648L28.0696 28.1435" stroke="black" stroke-width="2.23823" stroke-miterlimit="10" stroke-linecap="round" stroke-linejoin="round"/>
<path d="M25.1621 52.2049L28.0696 50.5273" stroke="black" stroke-width="2.23823" stroke-miterlimit="10" stroke-linecap="round" stroke-linejoin="round"/>
<path d="M34.582 61.6269L36.2607 58.7217" stroke="black" stroke-width="2.23823" stroke-miterlimit="10" stroke-linecap="round" stroke-linejoin="round"/>
<path d="M69.7465 26.4668L66.8379 28.1432" stroke="black" stroke-width="2.23823" stroke-miterlimit="10" stroke-linecap="round" stroke-linejoin="round"/>
<path d="M60.3254 17.0459L58.6445 19.9522" stroke="black" stroke-width="2.23823" stroke-miterlimit="10" stroke-linecap="round" stroke-linejoin="round"/>
<path d="M21.7148 39.335H27.3104" stroke="black" stroke-width="2.23823" stroke-miterlimit="10" stroke-linecap="round" stroke-linejoin="round"/>
<path d="M73.1932 39.335H67.5977" stroke="black" stroke-width="2.23823" stroke-miterlimit="10" stroke-linecap="round" stroke-linejoin="round"/>
<circle cx="27.5" cy="27.5" r="27.5" fill="#E84B37" fill-opacity="0.1"/>
</svg>
