<svg width="69" height="77" viewBox="0 0 69 77" fill="none" xmlns="http://www.w3.org/2000/svg">
<circle cx="27.5" cy="27.5" r="27.5" fill="#E84B37" fill-opacity="0.1"/>
<path d="M67.4316 30.1402L55.5043 18.2094C54.6969 17.4078 53.7148 17 52.584 17H32.0258C29.9832 17 28.3215 18.6617 28.3215 20.7043V22.325H26.7008C24.6605 22.325 23 23.9855 23 26.0258V73.2992C23 75.3395 24.6605 77 26.7008 77H59.6164C61.659 77 63.3207 75.3395 63.3207 73.2992V71.6785H64.9414C66.9816 71.6785 68.6422 70.0168 68.6422 67.9742V33.0617C68.6422 31.9227 68.2344 30.9395 67.4316 30.1402ZM65.4406 30.7988H54.8434V20.1992L65.4406 30.7988ZM61.4469 73.2992C61.4469 74.307 60.6254 75.1262 59.6164 75.1262H26.7008C25.693 75.1262 24.8738 74.307 24.8738 73.2992V26.0258C24.8738 25.018 25.693 24.1988 26.7008 24.1988H28.3215V67.9742C28.3215 70.0168 29.9832 71.6785 32.0258 71.6785H61.4469V73.2992ZM66.7684 67.9742C66.7684 68.9832 65.9492 69.8047 64.9414 69.8047H32.0258C31.0168 69.8047 30.1953 68.9832 30.1953 67.9742V20.7043C30.1953 19.6953 31.0168 18.8738 32.0258 18.8738H52.5852C52.7234 18.8738 52.857 18.8867 52.9848 18.9078C52.9754 18.9605 52.9695 19.0145 52.9695 19.0695V31.7363C52.9695 32.2531 53.3891 32.6727 53.9059 32.6727H66.7367C66.7566 32.798 66.7684 32.927 66.7684 33.0617V67.9742ZM35.5133 31.2383C35.5133 30.7203 35.9328 30.302 36.4496 30.302H46.7141C47.232 30.302 47.6504 30.7215 47.6504 31.2383C47.6504 31.7551 47.2309 32.1746 46.7141 32.1746H36.4496C35.9328 32.1746 35.5133 31.7551 35.5133 31.2383ZM61.4504 37.7891C61.4504 38.307 61.0309 38.7254 60.5141 38.7254H36.4508C35.9328 38.7254 35.5145 38.3059 35.5145 37.7891C35.5145 37.2723 35.934 36.8527 36.4508 36.8527H60.5141C61.0309 36.8516 61.4504 37.2711 61.4504 37.7891ZM61.4504 44.3387C61.4504 44.8566 61.0309 45.275 60.5141 45.275H36.4508C35.9328 45.275 35.5145 44.8555 35.5145 44.3387C35.5145 43.8219 35.934 43.4023 36.4508 43.4023H60.5141C61.0309 43.4023 61.4504 43.8219 61.4504 44.3387ZM61.4504 50.8895C61.4504 51.4074 61.0309 51.8258 60.5141 51.8258H36.4508C35.9328 51.8258 35.5145 51.4062 35.5145 50.8895C35.5145 50.3727 35.934 49.9531 36.4508 49.9531H60.5141C61.0309 49.9531 61.4504 50.3727 61.4504 50.8895ZM47.6516 57.4402C47.6516 57.9582 47.232 58.3766 46.7152 58.3766H41.583H36.4508C35.9328 58.3766 35.5145 57.957 35.5145 57.4402C35.5145 56.9234 35.934 56.5039 36.4508 56.5039H46.7152C47.232 56.5039 47.6516 56.9234 47.6516 57.4402ZM59.6832 56.5039H51.9172C50.941 56.5039 50.1465 57.2984 50.1465 58.2746V63.1613C50.1465 64.1363 50.941 64.9285 51.9172 64.9285H59.6832C60.657 64.9285 61.4504 64.1363 61.4504 63.1613V58.2746C61.4504 57.2984 60.657 56.5039 59.6832 56.5039ZM59.5766 63.0547H52.0191V58.3777H59.5766V63.0547Z" fill="black"/>
</svg>