<svg width="88" height="75" viewBox="0 0 88 75" fill="none" xmlns="http://www.w3.org/2000/svg">
<circle cx="27.5" cy="27.5" r="27.5" fill="#E84B37" fill-opacity="0.1"/>
<path d="M86.1672 45.9073C84.752 45.1833 83.1589 44.88 81.5767 45.0335C79.9944 45.1869 78.4893 45.7905 77.2395 46.7728L70.4288 52.1279C69.6132 51.1024 68.5395 50.3123 67.3179 49.8387C66.0962 49.3651 64.7705 49.225 63.4768 49.4329L52.3129 51.2165C51.8551 51.2793 51.3887 51.2232 50.9588 51.0536C48.499 50.1665 45.8609 49.8887 43.2703 50.2442C40.6797 50.5996 38.2139 51.5776 36.084 53.0945C35.8322 52.3519 35.3288 51.7206 34.6609 51.3099C33.993 50.8991 33.2026 50.7346 32.4263 50.8449L27.316 51.5848C26.4352 51.7133 25.6413 52.1858 25.1085 52.8988C24.5756 53.6117 24.3472 54.5069 24.4734 55.388L26.8466 71.7878C26.9783 72.667 27.4516 73.4587 28.1638 73.9907C28.876 74.5228 29.7694 74.7523 30.6498 74.6292L35.7601 73.8895C36.4574 73.793 37.1058 73.4768 37.6111 72.9867C38.1164 72.4967 38.4524 71.8584 38.5703 71.1644L41.5453 68.8754C42.2845 68.3126 43.2048 68.0411 44.1311 68.1125L58.9544 69.2709C60.8278 69.417 62.7109 69.1655 64.4804 68.5331C66.2498 67.9006 67.8657 66.9015 69.2221 65.601L86.5891 48.9476C86.8059 48.7406 86.9704 48.485 87.069 48.2019C87.1676 47.9188 87.1976 47.6164 87.1564 47.3195C87.1152 47.0225 87.004 46.7397 86.832 46.4941C86.6601 46.2486 86.4322 46.0475 86.1672 45.9073ZM36.1765 71.237C36.0886 71.3549 35.9783 71.4543 35.8519 71.5295C35.7255 71.6047 35.5855 71.6542 35.4399 71.6753L30.3296 72.4152C30.184 72.4363 30.0358 72.4285 29.8932 72.3922C29.7507 72.3559 29.6167 72.2919 29.499 72.2038C29.3812 72.1157 29.282 72.0052 29.207 71.8787C29.132 71.7522 29.0827 71.6121 29.0618 71.4665L26.6886 55.0678C26.6467 54.774 26.7228 54.4755 26.9004 54.2377C27.078 53.9999 27.3425 53.8421 27.6362 53.799L32.7465 53.0591C33.0402 53.0183 33.3381 53.0951 33.5754 53.2727C33.8128 53.4503 33.9705 53.7145 34.0142 54.0077L36.3874 70.4075C36.4088 70.5529 36.4011 70.701 36.3649 70.8434C36.3287 70.9857 36.2647 71.1195 36.1765 71.237ZM67.6724 63.9857C66.543 65.0666 65.1985 65.8973 63.7264 66.4234C62.2544 66.9496 60.6879 67.1594 59.1293 67.0393L44.3027 65.8808C42.8267 65.7639 41.3598 66.1976 40.1847 67.0983L38.3722 68.4933L36.4978 55.5401C38.376 53.9907 40.6247 52.9559 43.0233 52.5373C45.4219 52.1186 47.8881 52.3305 50.1802 53.152C50.9707 53.4594 51.828 53.554 52.6665 53.4263L63.8319 51.6427C65.0705 51.447 66.338 51.7068 67.3998 52.3739C68.4615 53.041 69.2456 54.0703 69.6067 55.2711L56.4523 57.4306C56.163 57.4825 55.9058 57.6462 55.7362 57.8862C55.5667 58.1262 55.4983 58.4233 55.546 58.7132C55.5936 59.0032 55.7535 59.2628 55.991 59.4359C56.2285 59.6089 56.5245 59.6816 56.8151 59.6382L70.3893 57.4109C70.6507 57.3639 70.8993 57.2624 71.1189 57.1129C71.3385 56.9634 71.5241 56.7693 71.6637 56.5433C71.8033 56.3173 71.8937 56.0645 71.9291 55.8012C71.9645 55.5379 71.944 55.2702 71.869 55.0153C71.7667 54.7276 71.6841 54.3636 71.5576 54.0877L78.6242 48.5313C79.4681 47.8682 80.4725 47.4404 81.5354 47.2912C82.5982 47.1421 83.6816 47.2769 84.6755 47.6821L67.6724 63.9857Z" fill="black"/>
<path d="M36.5693 45.2788H73.4301C74.3202 45.2778 75.1736 44.9238 75.803 44.2944C76.4324 43.665 76.7864 42.8116 76.7874 41.9215V40.0199C76.9974 40.0161 79.6893 40.4737 79.8976 40.4231C80.7036 40.4167 81.4806 40.1217 82.0878 39.5916C82.6949 39.0615 83.092 38.3313 83.207 37.5335L85.4016 21.9075C85.5222 21.028 85.2895 20.1366 84.7542 19.4285C84.219 18.7203 83.4249 18.2532 82.5458 18.1294L46.0457 12.9928C45.1638 12.8707 44.2694 13.1023 43.5576 13.6371C42.8458 14.1719 42.3744 14.9665 42.2463 15.8475L41.273 22.7905H36.5693C35.6791 22.7915 34.8257 23.1455 34.1963 23.775C33.5669 24.4044 33.2129 25.2578 33.2119 26.1479V41.9215C33.2129 42.8116 33.5669 43.665 34.1963 44.2944C34.8257 44.9238 35.6791 45.2778 36.5693 45.2788ZM44.6869 25.0288H65.313C65.5821 26.8354 66.4904 28.4855 67.8728 29.6793C69.2552 30.8731 71.02 31.5314 72.8465 31.5347H74.5492V36.5347H72.8465C71.0198 36.5377 69.2548 37.196 67.8722 38.3898C66.4896 39.5836 65.5811 41.2338 65.3118 43.0406H44.6875C44.4183 41.2339 43.5099 39.5838 42.1274 38.3899C40.7449 37.1961 38.98 36.5378 37.1534 36.5347H35.4501V31.5347H37.1534C38.9799 31.5314 40.7447 30.8731 42.1271 29.6793C43.5095 28.4854 44.4177 26.8354 44.6869 25.0288ZM74.5492 29.2965H72.8465C71.613 29.2946 70.4174 28.8699 69.4591 28.0933C68.5008 27.3167 67.8376 26.2351 67.5801 25.0288H73.4301C73.7268 25.029 74.0113 25.1469 74.2212 25.3568C74.431 25.5666 74.549 25.8511 74.5492 26.1479V29.2965ZM35.4501 41.9215V38.7729H37.1534C38.387 38.7748 39.5826 39.1994 40.5411 39.976C41.4995 40.7526 42.1628 41.8342 42.4204 43.0406H36.5693C36.2725 43.0403 35.9881 42.9223 35.7782 42.7125C35.5684 42.5027 35.4504 42.2182 35.4501 41.9215ZM73.4301 43.0406H67.579C67.8368 41.8342 68.5001 40.7526 69.4586 39.976C70.4171 39.1994 71.6128 38.7748 72.8465 38.7729H74.5492V41.9215C74.549 42.2182 74.431 42.5028 74.2212 42.7126C74.0113 42.9224 73.7268 43.0404 73.4301 43.0406ZM44.4632 16.1556C44.5066 15.8629 44.6639 15.5991 44.9008 15.4217C45.1377 15.2442 45.435 15.1675 45.7282 15.2081L82.2376 20.3468C82.5291 20.388 82.7925 20.5431 82.9699 20.778C83.1473 21.013 83.2243 21.3087 83.184 21.6004L80.9917 37.2166C80.9713 37.3626 80.9223 37.5032 80.8475 37.6302C80.7727 37.7573 80.6736 37.8683 80.5559 37.957C80.4381 38.0457 80.304 38.1104 80.1613 38.1472C80.0185 38.1841 79.8699 38.1924 79.7239 38.1718L76.7874 37.76V26.1479C76.7864 25.2578 76.4324 24.4044 75.803 23.775C75.1736 23.1455 74.3202 22.7915 73.4301 22.7905H43.5329L44.4632 16.1556ZM36.5693 25.0288H42.4197C42.1623 26.2351 41.4991 27.3167 40.5408 28.0933C39.5825 28.8699 38.3869 29.2946 37.1534 29.2965H35.4501V26.1479C35.4504 25.8512 35.5684 25.5667 35.7782 25.3569C35.988 25.1471 36.2725 25.0291 36.5693 25.0288Z" fill="black"/>
<path d="M55.0003 42.0515C57.1259 42.0491 59.1637 41.2036 60.6667 39.7006C62.1698 38.1976 63.0152 36.1597 63.0177 34.0341C62.6415 23.4247 47.3578 23.4269 46.9834 34.0343C46.9857 36.1598 47.8311 38.1976 49.334 39.7006C50.837 41.2036 52.8747 42.0491 55.0003 42.0515ZM55.0003 28.2561C62.6383 28.4989 62.6354 39.5719 55.0001 39.8133C47.3641 39.5706 47.3647 28.4979 55.0003 28.2561Z" fill="black"/>
</svg>
