<svg width="458" height="458" viewBox="0 0 458 458" fill="none" xmlns="http://www.w3.org/2000/svg">
<path d="M400.617 233.435C399.65 269.886 387.111 305.083 364.814 333.934C342.516 362.785 311.618 383.794 276.589 393.92L267.71 363.205C296.22 354.963 321.368 337.865 339.515 314.383C357.663 290.901 367.869 262.254 368.656 232.588L400.617 233.435Z" fill="#F9C74F"/>
<path d="M266.996 396.396C238.254 402.936 208.313 401.97 180.052 393.593C151.791 385.215 126.161 369.707 105.627 348.56C85.0925 327.413 70.3446 301.338 62.8014 272.843C55.2582 244.349 55.1735 214.392 62.5554 185.855L93.5092 193.862C87.5011 217.088 87.57 241.47 93.7094 264.661C99.8488 287.853 111.852 309.075 128.565 326.287C145.278 343.498 166.138 356.12 189.139 362.939C212.141 369.757 236.509 370.543 259.902 365.22L266.996 396.396Z" fill="#3DCE82"/>
<path d="M64.6129 178.567C76.7615 138.902 102.852 104.973 138.066 83.0446C173.28 61.1163 215.24 52.6703 256.196 59.2662L251.112 90.8321C217.778 85.4637 183.628 92.3379 154.967 110.185C126.306 128.033 105.071 155.648 95.1838 187.931L64.6129 178.567Z" fill="#AEAEAE"/>
<path d="M264.775 60.8727C302.608 68.9559 336.605 89.5715 361.262 119.382C385.919 149.192 399.793 186.452 400.637 225.129L368.672 225.827C367.985 194.348 356.693 164.022 336.625 139.76C316.556 115.497 288.886 98.7185 258.095 92.1397L264.775 60.8727Z" fill="#EA9186"/>
<path d="M180.751 182.46C188.168 182.46 193.911 184.778 197.98 189.413C202.1 194.049 204.16 200.693 204.16 209.346C204.16 215.423 203.053 220.625 200.838 224.952C198.623 229.226 195.507 232.497 191.49 234.763C187.524 236.978 182.914 238.085 177.661 238.085C174.88 238.085 172.253 237.802 169.781 237.235C167.36 236.617 165.248 235.742 163.446 234.609L167.154 227.038C169.832 228.789 173.257 229.664 177.429 229.664C182.631 229.664 186.7 228.068 189.636 224.874C192.572 221.681 194.039 217.071 194.039 211.045V210.968C192.443 212.822 190.408 214.239 187.936 215.217C185.464 216.144 182.683 216.608 179.592 216.608C176.038 216.608 172.845 215.938 170.012 214.599C167.18 213.208 164.965 211.251 163.368 208.728C161.772 206.204 160.973 203.294 160.973 199.997C160.973 196.495 161.849 193.431 163.6 190.804C165.351 188.126 167.72 186.065 170.708 184.623C173.695 183.181 177.043 182.46 180.751 182.46ZM181.524 208.728C184.769 208.728 187.395 207.852 189.404 206.101C191.464 204.35 192.494 202.135 192.494 199.457C192.494 196.83 191.49 194.667 189.481 192.967C187.524 191.216 184.794 190.34 181.292 190.34C178.15 190.34 175.601 191.19 173.644 192.89C171.686 194.538 170.708 196.753 170.708 199.534C170.708 202.367 171.686 204.607 173.644 206.255C175.601 207.903 178.227 208.728 181.524 208.728ZM249.747 228.814V237.313H209.883V230.591L231.36 210.195C233.781 207.878 235.403 205.869 236.227 204.169C237.103 202.418 237.541 200.693 237.541 198.993C237.541 196.469 236.691 194.538 234.991 193.199C233.292 191.86 230.794 191.19 227.497 191.19C221.986 191.19 217.763 193.07 214.827 196.83L207.797 191.422C209.908 188.589 212.741 186.4 216.295 184.855C219.9 183.258 223.918 182.46 228.347 182.46C234.219 182.46 238.906 183.851 242.408 186.632C245.91 189.413 247.661 193.199 247.661 197.989C247.661 200.925 247.043 203.68 245.807 206.255C244.571 208.831 242.202 211.766 238.7 215.063L224.252 228.814H249.747ZM272.463 204.169C280.086 204.169 285.726 205.663 289.383 208.65C293.04 211.586 294.868 215.603 294.868 220.702C294.868 223.947 294.07 226.883 292.473 229.51C290.876 232.137 288.481 234.222 285.288 235.768C282.095 237.313 278.155 238.085 273.468 238.085C269.605 238.085 265.871 237.545 262.265 236.463C258.66 235.33 255.621 233.785 253.149 231.827L257.398 224.024C259.407 225.673 261.802 226.986 264.583 227.965C267.416 228.892 270.326 229.355 273.313 229.355C276.867 229.355 279.648 228.634 281.657 227.192C283.717 225.698 284.747 223.664 284.747 221.089C284.747 218.307 283.64 216.222 281.425 214.831C279.262 213.389 275.528 212.668 270.223 212.668H257.166L259.948 183.233H291.7V191.654H268.446L267.287 204.169H272.463Z" fill="black"/>
<path d="M149.585 269.465C151.042 269.832 151.77 270.745 151.77 272.201C151.77 273.191 151.395 273.954 150.646 274.492C149.911 275.029 148.808 275.298 147.337 275.298H141.929V264.056H147.146C148.475 264.056 149.515 264.311 150.264 264.82C151.014 265.315 151.388 266.022 151.388 266.941C151.388 267.535 151.226 268.051 150.9 268.489C150.589 268.913 150.151 269.239 149.585 269.465ZM143.922 268.892H146.977C147.754 268.892 148.341 268.751 148.737 268.468C149.147 268.185 149.352 267.775 149.352 267.238C149.352 266.163 148.56 265.626 146.977 265.626H143.922V268.892ZM147.189 273.728C148.037 273.728 148.673 273.594 149.098 273.325C149.522 273.056 149.734 272.639 149.734 272.074C149.734 271.494 149.536 271.063 149.14 270.78C148.758 270.497 148.15 270.356 147.316 270.356H143.922V273.728H147.189ZM158.966 263.95C160.521 263.95 161.709 264.332 162.529 265.096C163.363 265.859 163.78 266.997 163.78 268.51V275.298H161.85V273.813C161.511 274.336 161.023 274.739 160.387 275.022C159.765 275.291 159.022 275.425 158.16 275.425C156.901 275.425 155.89 275.121 155.127 274.513C154.377 273.905 154.003 273.106 154.003 272.116C154.003 271.126 154.363 270.334 155.084 269.741C155.805 269.133 156.951 268.829 158.52 268.829H161.744V268.426C161.744 267.549 161.49 266.877 160.981 266.411C160.472 265.944 159.722 265.711 158.732 265.711C158.068 265.711 157.417 265.824 156.781 266.05C156.145 266.262 155.608 266.552 155.169 266.92L154.321 265.393C154.901 264.926 155.593 264.572 156.399 264.332C157.205 264.078 158.061 263.95 158.966 263.95ZM158.499 273.855C159.277 273.855 159.948 273.686 160.514 273.346C161.08 272.993 161.49 272.498 161.744 271.862V270.292H158.605C156.88 270.292 156.018 270.872 156.018 272.031C156.018 272.597 156.237 273.042 156.675 273.367C157.113 273.693 157.721 273.855 158.499 273.855ZM183.46 264.056V275.298H167.447V264.056H169.483V273.516H174.446V264.056H176.482V273.516H181.424V264.056H183.46ZM203.524 264.056V275.298H201.488V265.838H195.146V275.298H193.11V264.056H203.524ZM212.279 275.425C211.162 275.425 210.158 275.177 209.267 274.683C208.376 274.188 207.676 273.509 207.167 272.646C206.672 271.77 206.425 270.78 206.425 269.677C206.425 268.574 206.672 267.591 207.167 266.729C207.676 265.852 208.376 265.173 209.267 264.693C210.158 264.198 211.162 263.95 212.279 263.95C213.396 263.95 214.393 264.198 215.27 264.693C216.16 265.173 216.853 265.852 217.348 266.729C217.857 267.591 218.112 268.574 218.112 269.677C218.112 270.78 217.857 271.77 217.348 272.646C216.853 273.509 216.16 274.188 215.27 274.683C214.393 275.177 213.396 275.425 212.279 275.425ZM212.279 273.643C213 273.643 213.643 273.481 214.209 273.155C214.789 272.816 215.241 272.349 215.566 271.756C215.892 271.148 216.054 270.455 216.054 269.677C216.054 268.899 215.892 268.213 215.566 267.62C215.241 267.012 214.789 266.545 214.209 266.22C213.643 265.895 213 265.732 212.279 265.732C211.558 265.732 210.907 265.895 210.328 266.22C209.762 266.545 209.31 267.012 208.97 267.62C208.645 268.213 208.482 268.899 208.482 269.677C208.482 270.455 208.645 271.148 208.97 271.756C209.31 272.349 209.762 272.816 210.328 273.155C210.907 273.481 211.558 273.643 212.279 273.643ZM225.421 270.547H223.088V275.298H221.052V264.056H223.088V268.807H225.464L229.112 264.056H231.296L227.033 269.465L231.593 275.298H229.197L225.421 270.547ZM237.53 263.95C239.085 263.95 240.273 264.332 241.093 265.096C241.927 265.859 242.344 266.997 242.344 268.51V275.298H240.414V273.813C240.075 274.336 239.587 274.739 238.951 275.022C238.329 275.291 237.586 275.425 236.724 275.425C235.465 275.425 234.454 275.121 233.691 274.513C232.941 273.905 232.567 273.106 232.567 272.116C232.567 271.126 232.927 270.334 233.648 269.741C234.369 269.133 235.515 268.829 237.084 268.829H240.308V268.426C240.308 267.549 240.054 266.877 239.545 266.411C239.036 265.944 238.286 265.711 237.296 265.711C236.632 265.711 235.981 265.824 235.345 266.05C234.709 266.262 234.171 266.552 233.733 266.92L232.885 265.393C233.464 264.926 234.157 264.572 234.963 264.332C235.769 264.078 236.625 263.95 237.53 263.95ZM237.063 273.855C237.841 273.855 238.512 273.686 239.078 273.346C239.644 272.993 240.054 272.498 240.308 271.862V270.292H237.169C235.444 270.292 234.582 270.872 234.582 272.031C234.582 272.597 234.801 273.042 235.239 273.367C235.677 273.693 236.285 273.855 237.063 273.855ZM251.912 269.444C252.661 269.642 253.241 269.96 253.651 270.398C254.061 270.836 254.266 271.381 254.266 272.031C254.266 272.696 254.04 273.29 253.587 273.813C253.135 274.322 252.506 274.725 251.7 275.022C250.908 275.305 250.017 275.446 249.027 275.446C248.193 275.446 247.373 275.34 246.567 275.128C245.775 274.902 245.068 274.584 244.446 274.173L245.061 272.625C245.598 272.965 246.213 273.233 246.906 273.431C247.599 273.615 248.299 273.707 249.006 273.707C249.968 273.707 250.731 273.544 251.297 273.219C251.876 272.88 252.166 272.427 252.166 271.862C252.166 271.338 251.933 270.935 251.466 270.653C251.014 270.37 250.371 270.228 249.536 270.228H247.479V268.765H249.388C250.151 268.765 250.752 268.631 251.191 268.362C251.629 268.093 251.848 267.726 251.848 267.259C251.848 266.75 251.587 266.354 251.063 266.071C250.554 265.788 249.861 265.647 248.985 265.647C247.868 265.647 246.687 265.937 245.443 266.517L244.891 264.947C246.263 264.254 247.698 263.908 249.197 263.908C250.102 263.908 250.915 264.035 251.636 264.29C252.357 264.544 252.923 264.905 253.333 265.371C253.743 265.838 253.948 266.368 253.948 266.962C253.948 267.514 253.764 268.008 253.396 268.447C253.029 268.885 252.534 269.217 251.912 269.444ZM261.37 263.95C262.926 263.95 264.113 264.332 264.934 265.096C265.768 265.859 266.185 266.997 266.185 268.51V275.298H264.255V273.813C263.915 274.336 263.428 274.739 262.791 275.022C262.169 275.291 261.427 275.425 260.564 275.425C259.306 275.425 258.295 275.121 257.531 274.513C256.782 273.905 256.407 273.106 256.407 272.116C256.407 271.126 256.768 270.334 257.489 269.741C258.21 269.133 259.355 268.829 260.925 268.829H264.149V268.426C264.149 267.549 263.894 266.877 263.385 266.411C262.876 265.944 262.127 265.711 261.137 265.711C260.472 265.711 259.822 265.824 259.186 266.05C258.549 266.262 258.012 266.552 257.574 266.92L256.725 265.393C257.305 264.926 257.998 264.572 258.804 264.332C259.61 264.078 260.465 263.95 261.37 263.95ZM260.904 273.855C261.681 273.855 262.353 273.686 262.919 273.346C263.484 272.993 263.894 272.498 264.149 271.862V270.292H261.01C259.285 270.292 258.422 270.872 258.422 272.031C258.422 272.597 258.641 273.042 259.08 273.367C259.518 273.693 260.126 273.855 260.904 273.855ZM278.229 265.838H274.115V275.298H272.079V265.838H267.964V264.056H278.229V265.838ZM289.974 269.741C289.974 269.896 289.96 270.101 289.932 270.356H280.811C280.938 271.345 281.37 272.144 282.105 272.752C282.854 273.346 283.781 273.643 284.884 273.643C286.227 273.643 287.309 273.191 288.129 272.286L289.253 273.601C288.744 274.195 288.107 274.647 287.344 274.958C286.594 275.269 285.753 275.425 284.82 275.425C283.632 275.425 282.579 275.184 281.66 274.704C280.741 274.209 280.026 273.523 279.517 272.646C279.023 271.77 278.775 270.78 278.775 269.677C278.775 268.588 279.015 267.605 279.496 266.729C279.991 265.852 280.663 265.173 281.511 264.693C282.374 264.198 283.342 263.95 284.417 263.95C285.492 263.95 286.446 264.198 287.28 264.693C288.129 265.173 288.786 265.852 289.253 266.729C289.734 267.605 289.974 268.609 289.974 269.741ZM284.417 265.668C283.441 265.668 282.621 265.965 281.957 266.559C281.306 267.153 280.924 267.931 280.811 268.892H288.023C287.91 267.945 287.521 267.174 286.856 266.58C286.206 265.972 285.393 265.668 284.417 265.668ZM302.597 264.056V275.298H300.561V265.838H295.725L295.598 268.341C295.527 269.854 295.393 271.119 295.195 272.137C294.997 273.141 294.671 273.947 294.219 274.555C293.766 275.163 293.137 275.467 292.331 275.467C291.964 275.467 291.546 275.404 291.08 275.276L291.207 273.558C291.391 273.601 291.561 273.622 291.716 273.622C292.282 273.622 292.706 273.375 292.989 272.88C293.272 272.385 293.455 271.798 293.54 271.119C293.625 270.441 293.703 269.472 293.774 268.213L293.964 264.056H302.597ZM311.73 267.874C313.159 267.888 314.247 268.213 314.997 268.85C315.746 269.486 316.121 270.384 316.121 271.543C316.121 272.759 315.711 273.7 314.891 274.364C314.085 275.015 312.925 275.333 311.412 275.319L306.534 275.298V264.056H308.57V267.853L311.73 267.874ZM311.243 273.77C312.162 273.785 312.855 273.601 313.321 273.219C313.802 272.837 314.042 272.272 314.042 271.522C314.042 270.787 313.809 270.25 313.342 269.91C312.89 269.571 312.19 269.394 311.243 269.38L308.57 269.338V273.749L311.243 273.77Z" fill="black"/>
</svg>
